HIERARCHY
ROOT joint_Root
{
	OFFSET 0.0 0.0 0.0
	CHANNELS 6 Xposition Yposition Zposition Zrotation Xrotation Yrotation 
	JOINT Hips
	{
		OFFSET -0.726466 93.3139 -2.00062
		CHANNELS 6 Xposition Yposition Zposition Zrotation Xrotation Yrotation 
		JOINT Spine
		{
			OFFSET 15.7357 0.0 0.0
			CHANNELS 6 Xposition Yposition Zposition Zrotation Xrotation Yrotation 
			JOINT Chest
			{
				OFFSET 8.98455 -0.406207 0.0
				CHANNELS 6 Xposition Yposition Zposition Zrotation Xrotation Yrotation 
				JOINT Neck
				{
					OFFSET 16.3773 0.0 0.0
					CHANNELS 6 Xposition Yposition Zposition Zrotation Xrotation Yrotation 
					JOINT Head
					{
						OFFSET 6.45672 0.0 0.0
						CHANNELS 6 Xposition Yposition Zposition Zrotation Xrotation Yrotation 
						End Site
						{
							OFFSET 0.0 0.0 0.0
						}
					}
				}
				JOINT Shoulder_L
				{
					OFFSET 12.9942 -0.242716 4.98039
					CHANNELS 6 Xposition Yposition Zposition Zrotation Xrotation Yrotation 
					JOINT UpperArm_L
					{
						OFFSET 5.34809 0.0 0.0
						CHANNELS 6 Xposition Yposition Zposition Zrotation Xrotation Yrotation 
						JOINT LowerArm_L
						{
							OFFSET 24.3286 1.87007e-05 0.0
							CHANNELS 6 Xposition Yposition Zposition Zrotation Xrotation Yrotation 
							JOINT Hand_L
							{
								OFFSET 22.2916 0.0 0.0
								CHANNELS 6 Xposition Yposition Zposition Zrotation Xrotation Yrotation 
								End Site
								{
									OFFSET 0.0 0.0 0.0
								}
							}
						}
					}
				}
				JOINT Shoulder_R
				{
					OFFSET 12.9945 -0.242716 -4.98039
					CHANNELS 6 Xposition Yposition Zposition Zrotation Xrotation Yrotation 
					JOINT UpperArm_R
					{
						OFFSET -5.34813 0.0 0.0
						CHANNELS 6 Xposition Yposition Zposition Zrotation Xrotation Yrotation 
						JOINT LowerArm_R
						{
							OFFSET -24.3289 0.000322201 0.0
							CHANNELS 6 Xposition Yposition Zposition Zrotation Xrotation Yrotation 
							JOINT Hand_R
							{
								OFFSET -22.2915 -0.000108084 0.0
								CHANNELS 6 Xposition Yposition Zposition Zrotation Xrotation Yrotation 
								End Site
								{
									OFFSET 0.0 0.0 0.0
								}
							}
						}
					}
				}
			}
		}
		JOINT UpperLeg_L
		{
			OFFSET -2.19248 -6.46944 0.0
			CHANNELS 6 Xposition Yposition Zposition Zrotation Xrotation Yrotation 
			JOINT LowerLeg_L
			{
				OFFSET 39.0811 0.0 -1.23785e-05
				CHANNELS 6 Xposition Yposition Zposition Zrotation Xrotation Yrotation 
				JOINT Foot_L
				{
					OFFSET 40.9854 0.0 -1.26872e-05
					CHANNELS 6 Xposition Yposition Zposition Zrotation Xrotation Yrotation 
					JOINT Toes_L
					{
						OFFSET 11.7543 0.0 0.0
						CHANNELS 6 Xposition Yposition Zposition Zrotation Xrotation Yrotation 
						End Site
						{
							OFFSET 0.0 0.0 0.0
						}
					}
				}
			}
		}
		JOINT UpperLeg_R
		{
			OFFSET -2.19251 6.46944 0.0
			CHANNELS 6 Xposition Yposition Zposition Zrotation Xrotation Yrotation 
			JOINT LowerLeg_R
			{
				OFFSET -39.0811 -0.00228153 -0.0401928
				CHANNELS 6 Xposition Yposition Zposition Zrotation Xrotation Yrotation 
				JOINT Foot_R
				{
					OFFSET -40.9854 0.0 0.0
					CHANNELS 6 Xposition Yposition Zposition Zrotation Xrotation Yrotation 
					JOINT Toes_R
					{
						OFFSET -11.7543 0.0 0.0
						CHANNELS 6 Xposition Yposition Zposition Zrotation Xrotation Yrotation 
						End Site
						{
							OFFSET 0.0 0.0 0.0
						}
					}
				}
			}
		}
	}
}
MOTION
Frames:	4
Frame Time:	0.0333333
0.000000 0.000000 0.000000 0.000000 0.000000 -0.000000 0.863041 89.961700 532.494000 -86.794500 0.466124 -179.879000 15.735700 0.000005 -0.000001 84.321100 83.520800 -83.505000 8.984550 -0.406207 -0.000000 5.139560 -1.298280 1.688820 16.377300 -0.000001 -0.000001 4.239690 -1.324260 0.106031 6.456720 -0.000001 -0.000000 1.448200 0.231200 -0.482216 12.994200 -0.242716 4.980390 -89.613100 -1.121530 -70.965500 5.348090 -0.000007 -0.000001 -73.464400 36.440300 -9.993700 24.328600 0.000019 0.000005 -0.119181 -0.274631 -23.486400 22.291600 -0.000001 0.000005 10.706800 5.508440 -6.876040 12.994500 -0.242716 -4.980390 87.963800 5.665990 -70.195700 -5.348130 -0.000001 -0.000004 -69.812300 27.982300 -6.566960 -24.328900 0.000322 -0.000009 3.873800 10.511600 -20.373500 -22.291500 -0.000108 -0.000004 6.619570 5.384740 -2.446190 -2.192480 -6.469440 -0.000000 -177.390000 -6.398020 -1.577200 39.081100 -0.000007 -0.000012 -0.287078 0.531610 28.370300 40.985400 -0.000006 -0.000013 -0.655576 -5.111670 -77.142000 11.754300 -0.000000 0.000003 -0.000382 -0.006205 -16.829500 -2.192510 6.469440 -0.000001 -179.550000 12.111200 157.355000 -39.081100 -0.002282 -0.040193 0.077616 -0.035151 64.725900 -40.985400 0.000008 0.000006 3.251320 -7.713030 -55.063800 -11.754300 -0.000006 -0.000006 -0.020991 -0.172718 -23.631600
0.000000 0.000000 0.000000 0.000000 0.000000 -0.000000 0.822524 90.066200 530.744000 -85.882700 -1.493590 -179.983000 15.735700 0.000005 -0.000001 79.707800 83.453000 -78.471900 8.984550 -0.406207 -0.000000 5.147510 -2.362810 2.575390 16.377300 -0.000001 -0.000001 4.131990 -1.565290 -0.165291 6.456720 -0.000001 -0.000000 1.395790 0.731826 -0.438640 12.994200 -0.242716 4.980390 -89.649700 -1.061340 -71.730900 5.348090 -0.000007 -0.000001 -68.663800 39.752000 -16.785900 24.328600 0.000019 0.000005 -0.434171 -0.764677 -29.531200 22.291600 -0.000001 0.000005 11.257400 5.538240 -8.160780 12.994500 -0.242716 -4.980390 88.075200 5.185030 -69.600800 -5.348130 -0.000001 -0.000004 -71.811400 24.810700 -2.493950 -24.328900 0.000322 -0.000009 3.468520 13.653400 -14.409000 -22.291500 -0.000108 -0.000004 5.785680 5.338100 -1.024280 -2.192480 -6.469440 -0.000000 -176.113000 -5.531720 0.466486 39.081100 -0.000007 -0.000012 -0.265360 0.539788 26.179200 40.985400 -0.000006 -0.000013 -0.578993 -4.089490 -77.166800 11.754300 -0.000000 0.000003 -0.000005 -0.000066 -16.580100 -2.192510 6.469440 -0.000001 -177.602000 12.438000 154.045000 -39.081100 -0.002282 -0.040193 0.060767 -0.031722 61.145700 -40.985400 0.000008 0.000006 3.474450 -8.292760 -56.953000 -11.754300 -0.000006 -0.000006 -0.023485 -0.185881 -24.174700
0.000000 0.000000 0.000000 0.000000 0.000000 -0.000000 0.788923 90.076700 528.970000 -85.065400 -2.992550 -179.969000 15.735700 0.000005 -0.000001 76.197900 83.271100 -74.568500 8.984550 -0.406207 -0.000000 5.358080 -3.237690 3.407330 16.377300 -0.000001 -0.000001 3.978870 -1.654860 -0.406627 6.456720 -0.000001 -0.000000 1.210970 1.259680 -0.340508 12.994200 -0.242716 4.980390 -89.659200 -1.064350 -72.241600 5.348090 -0.000007 -0.000001 -63.161400 41.079800 -24.195400 24.328600 0.000019 0.000005 -1.210620 -1.737360 -34.888100 22.291600 -0.000001 0.000005 11.180100 5.549350 -8.677610 12.994500 -0.242716 -4.980390 88.118900 4.941610 -69.129500 -5.348130 -0.000001 -0.000004 -72.247400 20.422700 0.949010 -24.328900 0.000322 -0.000009 2.630800 15.746000 -9.615190 -22.291500 -0.000108 -0.000004 6.345890 5.297140 0.149674 -2.192480 -6.469440 -0.000000 -174.949000 -4.965840 2.606350 39.081100 -0.000007 -0.000012 -0.242181 0.542961 24.039100 40.985400 -0.000006 -0.000013 -0.497590 -3.108370 -77.259600 11.754300 -0.000000 0.000003 -0.000027 -0.000325 -16.590200 -2.192510 6.469440 -0.000001 -176.005000 12.587900 151.470000 -39.081100 -0.002282 -0.040193 0.045113 -0.029072 55.237500 -40.985400 0.000008 0.000006 2.667640 -9.135140 -57.863100 -11.754300 -0.000006 -0.000006 -0.021886 -0.177520 -23.829600
0.000000 0.000000 0.000000 0.000000 0.000000 -0.000000 0.819916 89.935800 527.159000 -84.380600 -4.051440 179.880000 15.735700 0.000005 -0.000001 73.604500 83.116600 -71.631100 8.984550 -0.406207 -0.000000 5.521690 -3.915500 4.132320 16.377300 -0.000001 -0.000001 3.807130 -1.756760 -0.403389 6.456720 -0.000001 -0.000000 1.079870 1.650480 -0.443145 12.994200 -0.242716 4.980390 -89.643900 -1.144270 -72.710100 5.348090 -0.000007 -0.000001 -58.378300 40.426500 -30.941800 24.328600 0.000019 0.000005 -1.652470 -2.036940 -39.062100 22.291600 -0.000001 0.000005 11.248600 5.556520 -9.017960 12.994500 -0.242716 -4.980390 88.166200 4.710730 -68.701700 -5.348130 -0.000001 -0.000004 -71.565100 15.816900 3.727790 -24.328900 0.000322 -0.000009 1.761340 16.818800 -6.070330 -22.291500 -0.000108 -0.000004 8.173500 5.250190 1.423130 -2.192480 -6.469440 -0.000000 -173.778000 -4.910890 4.493620 39.081100 -0.000007 -0.000012 -0.235831 0.576536 22.247400 40.985400 -0.000006 -0.000013 -0.559347 -2.095700 -77.599300 11.754300 -0.000000 0.000003 -0.000033 -0.000390 -16.592800 -2.192510 6.469440 -0.000001 -174.416000 12.703400 149.405000 -39.081100 -0.002282 -0.040193 0.029033 -0.023677 47.431700 -40.985400 0.000008 0.000006 2.315980 -10.077500 -56.711100 -11.754300 -0.000006 -0.000006 -0.021783 -0.176972 -23.807000
